<?xml version="1.0" encoding="utf-8"?>
<!-- Generator: Adobe Illustrator 22.0.1, SVG Export Plug-In . SVG Version: 6.00 Build 0)  -->
<svg version="1.1" id="Layer_1" xmlns="http://www.w3.org/2000/svg" xmlns:xlink="http://www.w3.org/1999/xlink" x="0px" y="0px"
	 viewBox="0 0 331.3 135.9" style="enable-background:new 0 0 331.3 135.9;" xml:space="preserve">
<style type="text/css">
	.st0{fill:#702F8A;}
</style>
<path class="st0" d="M190,19.4h3.5c2.1,0,3.6,1.1,3.6,3.3c0,2.2-1.6,2.8-1.9,2.9v0c1,0.3,2.6,0.8,2.6,3.4c0,2.7-2.1,3.6-4.2,3.6H190
	L190,19.4L190,19.4z M191.5,25.1h1.3c0.8,0,2.8,0,2.8-2.4c0-2-1.6-2.1-2.6-2.1h-1.5L191.5,25.1L191.5,25.1z M191.5,31.4h1.7
	c0.7,0,3-0.1,3-2.5c0-1.6-1.2-2.5-2.8-2.5h-1.9L191.5,31.4L191.5,31.4z"/>
<path class="st0" d="M204,19.4h1.8l4.3,13.3h-1.5l-1.3-4.1h-4.7l-1.3,4.1h-1.5L204,19.4z M203,27.3h3.9l-1.9-6.6h0L203,27.3z"/>
<path class="st0" d="M212.9,19.4h1.9l5.5,11.2h0V19.4h1.4v13.3h-1.9l-5.5-11.2h0v11.2h-1.4L212.9,19.4L212.9,19.4z"/>
<path class="st0" d="M230.1,32.6c-3.8,0-4.8-3.7-4.8-6.6c0-3.4,1-6.8,4.9-6.8c3.8,0,4.7,3.5,4.7,6.8c0,3.2-0.9,5-1.8,5.5l0,0
	l2.7-0.2v1.3H230.1z M230.1,31.4c2.9,0,3.2-2.8,3.2-5.4c0-2.4-0.4-5.6-3.1-5.6c-2.8,0-3.2,3.2-3.2,5.6
	C226.9,28.1,227.4,31.4,230.1,31.4z"/>
<path class="st0" d="M246.9,28.4c0,1.7-0.3,4.5-4.3,4.5c-3.6,0-4.1-2.7-4.1-4.5v-9h1.5v8.7c0,1.5,0.1,3.5,2.6,3.5
	c2.7,0,2.7-2,2.7-3.5v-8.7h1.5L246.9,28.4L246.9,28.4z"/>
<path class="st0" d="M251,19.4h6.4v1.2h-4.9V25h4.7v1.2h-4.7v5.1h5.1v1.2H251L251,19.4L251,19.4z"/>
<path class="st0" d="M190.1,48.6h1.5v13.3h-1.5V48.6z"/>
<path class="st0" d="M195.9,48.6h1.9l5.5,11.2h0V48.6h1.4v13.3h-1.9l-5.5-11.2h0v11.2h-1.4V48.6z"/>
<path class="st0" d="M210.5,49.8h-3.2v-1.2h7.8v1.2H212v12h-1.5V49.8z"/>
<path class="st0" d="M217.8,48.6h6.4v1.2h-4.9v4.4h4.7v1.2h-4.7v5.1h5.1v1.2h-6.6L217.8,48.6L217.8,48.6z"/>
<path class="st0" d="M227.6,48.6h3.3c0.9,0,4.2,0.1,4.2,3.3c0,2.4-1.5,3-2.7,3.3v0c1.8,0.5,2,1.5,2.3,2.9l0.8,3.6H234l-0.7-3.1
	c-0.4-1.9-0.8-2.8-2.8-2.8h-1.4v5.9h-1.5L227.6,48.6L227.6,48.6z M229.1,54.7h0.8c1.8,0,3.7-0.4,3.7-2.6c0-2.2-1.8-2.2-3.4-2.2h-1.1
	L229.1,54.7L229.1,54.7z"/>
<path class="st0" d="M238.9,48.6h1.9l5.5,11.2h0V48.6h1.4v13.3h-1.9l-5.5-11.2h0v11.2h-1.4L238.9,48.6L238.9,48.6z"/>
<path class="st0" d="M254.7,48.6h1.8l4.3,13.3h-1.5l-1.3-4.1h-4.7l-1.3,4.1h-1.5L254.7,48.6z M253.7,56.5h3.9l-1.9-6.6h0L253.7,56.5
	z"/>
<path class="st0" d="M264.8,49.8h-3.2v-1.2h7.8v1.2h-3.2v12h-1.5V49.8z"/>
<path class="st0" d="M272.1,48.6h1.5v13.3h-1.5V48.6z"/>
<path class="st0" d="M277.3,55.2c0-3.4,0.9-6.8,4.7-6.8c3.8,0,4.7,3.5,4.7,6.8c0,3.3-0.9,6.9-4.7,6.9
	C278.2,62,277.3,58.5,277.3,55.2z M282,60.8c2.6,0,3.1-3.2,3.1-5.6c0-2.4-0.4-5.6-3.1-5.6c-2.7,0-3.1,3.2-3.1,5.6
	C278.9,57.5,279.4,60.8,282,60.8z"/>
<path class="st0" d="M290.3,48.6h1.9l5.5,11.2h0V48.6h1.4v13.3h-1.9l-5.5-11.2h0v11.2h-1.4L290.3,48.6L290.3,48.6z"/>
<path class="st0" d="M306.2,48.6h1.8l4.3,13.3h-1.5l-1.3-4.1h-4.7l-1.3,4.1h-1.5L306.2,48.6z M305.1,56.5h3.9l-1.9-6.6h0L305.1,56.5
	z"/>
<path class="st0" d="M315,48.6h1.5v12h4.7v1.2H315L315,48.6L315,48.6z"/>
<path class="st0" d="M323.8,48.6h6.4v1.2h-4.9v4.4h4.7v1.2h-4.7v5.1h5.1v1.2h-6.6V48.6z"/>
<path class="st0" d="M192.7,77.8h1.8l4.3,13.3h-1.5l-1.3-4.1h-4.7L190,91h-1.5L192.7,77.8z M191.7,85.7h3.9l-1.9-6.6h0L191.7,85.7z
	 M191.8,73.6h1.7l0.8,2.6h-1.2L191.8,73.6z"/>
<path class="st0" d="M207.6,77.8h1.5v12h4.7V91h-6.2V77.8z"/>
<path class="st0" d="M224.6,86.8c0,1.7-0.3,4.5-4.3,4.5c-3.6,0-4.1-2.7-4.1-4.5v-9h1.5v8.7c0,1.5,0.1,3.5,2.6,3.5
	c2.7,0,2.7-2,2.7-3.5v-8.7h1.5L224.6,86.8L224.6,86.8z"/>
<path class="st0" d="M231.2,84.1l-3.8-6.3h1.6l3,5l2.9-5h1.6l-3.7,6.3l4.2,7h-1.6l-3.3-5.6l-3.4,5.6h-1.6L231.2,84.1z"/>
<path class="st0" d="M239.6,77.8h6.4V79h-4.9v4.4h4.7v1.2h-4.7v5.1h5.1V91h-6.6V77.8z"/>
<path class="st0" d="M249.5,77.8h2.2l3.8,11.3h0l3.8-11.3h2.2V91h-1.3V79.4h0L256.3,91h-1.5l-3.9-11.7h0V91h-1.3L249.5,77.8
	L249.5,77.8z"/>
<path class="st0" d="M265.7,77.8h3.5c2.1,0,3.6,1.1,3.6,3.3c0,2.2-1.6,2.8-1.9,2.9v0c1,0.3,2.6,0.8,2.6,3.4c0,2.7-2.1,3.6-4.2,3.6
	h-3.5V77.8z M267.2,83.5h1.3c0.8,0,2.8,0,2.8-2.4c0-2-1.6-2.1-2.6-2.1h-1.5L267.2,83.5L267.2,83.5z M267.2,89.8h1.7
	c0.7,0,3-0.1,3-2.5c0-1.6-1.2-2.5-2.8-2.5h-1.9V89.8z"/>
<path class="st0" d="M276.4,84.4c0-3.4,0.9-6.8,4.7-6.8c3.8,0,4.7,3.5,4.7,6.8c0,3.3-0.9,6.9-4.7,6.9
	C277.3,91.2,276.4,87.7,276.4,84.4z M281.1,90c2.6,0,3.1-3.2,3.1-5.6c0-2.4-0.4-5.6-3.1-5.6c-2.7,0-3.1,3.2-3.1,5.6
	C278,86.8,278.4,90,281.1,90z"/>
<path class="st0" d="M297.6,86.8c0,1.7-0.3,4.5-4.3,4.5c-3.6,0-4.1-2.7-4.1-4.5v-9h1.5v8.7c0,1.5,0.1,3.5,2.6,3.5
	c2.7,0,2.7-2,2.7-3.5v-8.7h1.5L297.6,86.8L297.6,86.8z"/>
<path class="st0" d="M301.7,77.8h3.3c0.9,0,4.2,0.1,4.2,3.3c0,2.4-1.5,3-2.7,3.3v0c1.8,0.5,2,1.5,2.3,2.9l0.8,3.6h-1.5l-0.7-3.1
	c-0.4-1.9-0.8-2.8-2.8-2.8h-1.4V91h-1.5L301.7,77.8L301.7,77.8z M303.2,83.9h0.8c1.8,0,3.7-0.4,3.7-2.6c0-2.2-1.8-2.2-3.4-2.2h-1.1
	L303.2,83.9L303.2,83.9z"/>
<path class="st0" d="M321.5,90c-0.3,0.3-1.7,1.3-3.8,1.3c-4.2,0-5.3-3.4-5.3-7.3c0-3.4,1.3-6.4,4.9-6.4c2.6,0,4.3,1.6,4.3,3.8h-1.7
	c0-1.2-0.7-2.6-2.6-2.6c-2.7,0-3.3,2.7-3.3,5.1c0,2.6,0.4,6,3.6,6c1.3,0,2.2-0.5,2.4-0.7v-4.5h-3v-1.2h4.5L321.5,90L321.5,90z"/>
<path class="st0" d="M3.7,104.2l-2.4,1.4v-1.8l2.8-1.5h1.8v12H3.7V104.2z"/>
<path class="st0" d="M40.1,105.2c0-0.5-0.4-1.4-1.5-1.4c-1.7,0-1.9,2-1.9,4.4c0.5-0.5,1.3-1.1,2.6-1.1c2.3,0,3.4,1.5,3.4,3.7
	c0,2.3-1.5,3.7-4,3.7c-3.7,0-4.3-2.8-4.3-6.1c0-3.7,0.8-6.1,4.4-6.1c2.7,0,3.6,1.6,3.6,2.9L40.1,105.2L40.1,105.2z M38.5,113.1
	c1.3,0,1.8-1.1,1.8-2.4c0-1.2-0.4-2.2-1.8-2.2c-1.4,0-1.8,0.9-1.8,2.3C36.7,112,37.3,113.1,38.5,113.1z"/>
<path class="st0" d="M22.8,60c-0.8,0-4.2,0-5.5,0.1v17c1.4,0.2,3.8,0.3,6.3,0.3c7.3,0,11.4-3.4,11.4-9C35.1,62.8,30.5,60,22.8,60
	 M24.2,31.5c-2.5,0-4.9,0.1-6.9,0.2v15.8c1.4,0.1,3,0.1,4.9,0.1c8,0,11.9-3.3,11.9-8.8C34.1,34.3,31,31.5,24.2,31.5 M23.3,91
	c-4.2,0-12.1-0.2-22.5-0.2V18.7c6.6-0.3,17.2-0.5,26-0.5c15.5,0,24.7,6.1,24.7,18.2c0,6.7-4.2,12.8-10.4,15.6v0.3
	c7.3,1.9,11.5,8.8,11.5,15.9C52.7,79.8,44.3,91,23.3,91"/>
<path class="st0" d="M77.7,42.4V18.1H61.2v24.4v14.3v22.6c0,4,0,8,0,11.4c0,0,0,0.1,0,0.1h16.5V42.4z"/>
<path class="st0" d="M81.7,102.6c0,0,2.7,3.5,8.8,7.9c1.8,1.3,4.6,3,6.2,4c1.3,0.8,2.6,1.5,4.5,2.4c0.6,0.3,1.8,0.6,3.5-0.3
	c2.4-1.3,13.6-7.3,25.2-19.3s20.3-24.9,26-38.3c4.6-10.9,7.7-22.7,9.1-34.7c0.3-2.7,0.7-7.4,0.7-8.2c0-0.8,0.2-2.1-1.9-2.8
	c-1.9-0.6-15.7-5.3-35.2-8.1S97.4,2.6,84.7,3.2C73.6,3.8,59.9,5.9,54.1,6.8l0-1.3c0,0,12.2-2.6,27.2-3.9s35.6-1.2,51.9,1.1
	s26.2,4.5,29.6,5.4c2.1,0.6,3.4,0.9,5.5,1.5c1,0.3,1.5,0.6,2,1.3c0.3,0.4,0.5,1.1,0.5,1.6c0,1.2,0,3.4,0,3.9c0,1.2-0.2,7.4-0.8,12.6
	s-2.3,20.7-9.3,37.6c-1.8,4.5-3.9,9.2-6.4,13.9c-6.8,12.9-16.1,26-28.4,37.2c-14.4,13.2-20.4,16.1-21.4,16.6c-1.4,0.8-2.2,1-3.4,0.4
	s-5.6-2.8-12.9-7.6c-7.2-4.8-12.7-9.6-16.9-14.1c-4.2-4.5-6.4-8.1-7.8-10.5L81.7,102.6L81.7,102.6z"/>
<path class="st0" d="M10.9,111.2c0-2.3,1.2-2.7,2.1-3.1c-0.9-0.4-1.9-0.9-1.9-2.8c0-2.2,1.8-3,4-3c2.2,0,4,0.8,4,3.1
	c0,1.9-1.1,2.4-1.9,2.7c0.9,0.4,2,0.8,2,3.1c0,2.5-1.8,3.3-4.1,3.3C12.6,114.5,10.9,113.6,10.9,111.2z M15.1,113.1
	c1.3,0,1.8-0.9,1.8-2.3c0-1.1-0.5-2.1-1.8-2.1c-1.3,0-1.8,1-1.8,2.1C13.2,112.3,13.9,113.1,15.1,113.1z M15.1,107.4
	c1.1,0,1.7-0.7,1.7-1.9c0-1.2-0.6-1.8-1.7-1.8c-0.9,0-1.7,0.7-1.7,1.8C13.4,106.7,14.1,107.4,15.1,107.4z"/>
<path class="st0" d="M25.3,107.6c0.4-0.3,1.1-0.6,2-0.6c2.4,0,3.7,1.3,3.7,3.8c0,2.7-2,3.7-4.3,3.7c-3.4,0-4.1-1.6-4.2-2.9h2.5
	c0.1,0.6,0.4,1.4,1.7,1.4c1.4,0,1.9-0.8,1.9-2.3c0-1.3-0.5-2.3-1.9-2.3c-0.9,0-1.4,0.5-1.5,0.9h-2.2l0.3-6.8h6.7v1.6h-4.7
	L25.3,107.6z"/>
<path class="st0" d="M90,18.1V91h29.5c0,0,8.1-7,12.9-14.8h-25.8V18.1H90z"/>
</svg>
