<svg xmlns="http://www.w3.org/2000/svg" width="473.49816" height="160" viewBox="0 0 473.49816 160">
  <defs>
    <style>
      .cls-1 {
        fill: #ff6200;
      }
    </style>
  </defs>
  <g id="Layer_2" data-name="Layer 2">
    <g id="Layer_1-2" data-name="Layer 1">
      <g>
        <path class="cls-1" d="M.04735,27.91505H18.90958V130.85138c0,9.33641,2.55923,11.89564,11.943,11.89564h6.30319v16.16c-7.725-.23675-15.54474.94866-23.03285-2.08406C6.39806,153.64682,2.27479,147.533.52135,139.57158A7.73241,7.73241,0,0,0,0,138.10241Q.071,83.00873.04735,27.91505Z"/>
        <path class="cls-1" d="M424.25769,0V49.85686h49.00372c-.71191.85313-1.04371,1.327-1.42215,1.75361Q461.17552,62.3447,450.41848,72.9844a4.43418,4.43418,0,0,1-2.796,1.327c-15.68712.09487-31.37429.04735-47.06141.04735a10.5114,10.5114,0,0,1-1.32711-.14205V71.98923c0-15.02357-.04671-30.09431.04665-45.11771a5.1995,5.1995,0,0,1,1.47055-3.41219c7.10915-7.25119,14.36-14.40735,21.51582-21.611.52183-.5687.99532-1.18475,1.51552-1.75344A.858.858,0,0,1,424.25769,0Z"/>
        <path class="cls-1" d="M473.49816,0V24.69143H448.42779V0Z"/>
        <path class="cls-1" d="M109.14466,151.0876c-2.60591,1.8473-4.78666,3.64959-7.20251,5.02341-7.48927,4.31317-15.735,4.31317-23.93383,3.41285a37.72354,37.72354,0,0,1-10.90029-2.796c-8.90977-3.83968-13.31731-11.13721-14.78648-20.47429-2.13258-13.412,4.218-25.11809,16.49257-29.19383a52.72982,52.72982,0,0,1,13.886-2.46436c7.77238-.37913,15.63912-.09471,23.41181-.09471h3.17612c-.47517-4.73931-.42682-9.24154-1.42217-13.55438-1.23209-5.54493-5.54526-8.38841-10.90047-9.57316a39.52943,39.52943,0,0,0-17.15613,0c-4.97623,1.09005-8.53081,4.2178-11.75343,8.1515-4.17044-3.9337-8.2462-7.725-12.41681-11.6112C60.37835,72.179,65.97064,67.961,73.07943,66.2549a63.98757,63.98757,0,0,1,35.21327.94782c11.65739,3.79149,17.86621,12.085,19.09831,24.17026.23676,2.51171.33179,5.02358.33179,7.53529.04835,19.00444,0,38.00889,0,56.966v2.891H109.04962C109.14466,156.20605,109.14466,153.74185,109.14466,151.0876Zm-.04669-33.26975c-8.95811,0-17.29851-.09471-25.63958.09486a17.72929,17.72929,0,0,0-6.11363,1.61139c-4.92872,2.13258-7.29838,6.54011-7.01411,12.46417.28443,5.49759,2.98571,9.24155,8.199,10.85278a32.67519,32.67519,0,0,0,19.52614,0c5.45022-1.65857,9.24155-5.26049,10.0935-11.04234C108.86123,127.29648,108.81288,122.652,109.098,117.81785Z"/>
        <path class="cls-1" d="M257.53131,65.638h18.76653V158.7636h-18.4831v-9.00314c-4.21814,4.16978-8.62465,7.15582-13.79145,8.483-13.45971,3.55457-25.87568,2.03738-35.82749-8.768-5.45023-5.92374-7.39424-13.31731-7.44092-21.137-.14338-20.47363-.04834-40.99444-.04834-61.46806,0-.33179.04834-.616.095-1.1374h18.67319V121.656c0,5.26049.71023,10.37894,3.98136,14.78647,4.21648,5.687,12.321,8.05614,20.33041,5.97142,7.3459-1.89566,12.22759-7.48811,13.26962-15.213a40.68674,40.68674,0,0,0,.38015-5.8767c.04668-17.58263,0-35.16525,0-52.74787A28.91753,28.91753,0,0,0,257.53131,65.638Z"/>
        <path class="cls-1" d="M294.73428,65.63852c1.08871-.04735,1.84728-.14222,2.60588-.14222,5.92375,0,11.84747.04735,17.77286-.04735a3.4369,3.4369,0,0,1,3.5529,1.99053q7.82022,13.0803,15.78217,26.06574c.38012.66356.85362,1.2796,1.42215,2.13274,5.45023-9.052,10.85212-17.81954,15.97058-26.72947,1.47049-2.55906,3.08106-3.60176,6.06712-3.45954,5.35516.28427,10.71037.0947,16.11391.0947.757,0,1.51552.09487,2.6526.14222-.75695,1.13739-1.27878,1.99052-1.84732,2.79614-9.09984,13.55422-18.1046,27.10843-27.29781,40.6153a3.19845,3.19845,0,0,0,.04668,4.31283c9.62,14.21763,19.14666,28.53027,28.72,42.79591.52183.75692.99532,1.56387,1.6589,2.6059-.90033.04668-1.56386.14171-2.22744.14171-6.06712,0-12.13257-.04668-18.24635.04835a3.47667,3.47667,0,0,1-3.50622-2.039c-5.45022-9.05148-10.99549-18.00826-16.49408-27.0129-.47349-.80561-.99367-1.56405-1.70559-2.65393-.56853.853-1.042,1.56388-1.46883,2.22745-5.73534,9.24139-11.469,18.48294-17.10931,27.72449a2.99192,2.99192,0,0,1-2.98436,1.70558c-6.77736-.095-13.55473-.04668-20.80558-.04668.56854-.94867.99535-1.61222,1.4205-2.27579,9.76338-14.50122,19.47845-29.05078,29.28851-43.50548a2.901,2.901,0,0,0-.04669-3.88619c-9.24154-13.55422-18.34137-27.15578-27.4879-40.71017C296.01305,67.629,295.4912,66.77591,294.73428,65.63852Z"/>
        <path class="cls-1" d="M147.39132,27.91505h18.95659V133.07883c.28343,6.72984,3.36451,9.668,10.14185,9.71554h8.1045v16.4444c-6.20882-.33179-12.41765-.09337-18.43641-1.13706-10.427-1.80063-17.156-9.57334-18.3414-20.094a55.08052,55.08052,0,0,1-.37845-6.82454q-.07-50.11744,0-100.23506C147.39132,30.00028,147.39132,29.05245,147.39132,27.91505Z"/>
      </g>
    </g>
  </g>
</svg>
