<?xml version="1.0" encoding="UTF-8" standalone="no"?>
<!DOCTYPE svg PUBLIC "-//W3C//DTD SVG 20010904//EN"
              "http://www.w3.org/TR/2001/REC-SVG-20010904/DTD/svg10.dtd">

<svg xmlns="http://www.w3.org/2000/svg"
     width="226.102mm" height="302.998mm"
     viewBox="0 0 641 859">
  <path id="Sélection #2"
        fill="white" stroke="black" stroke-width="1"
        d="M 230.00,0.00
           C 230.00,0.00 240.00,1.00 240.00,1.00
             240.00,1.00 230.00,0.00 230.00,0.00 Z
           M 260.00,1.00
           C 260.00,1.00 261.00,1.00 261.00,1.00
             261.00,1.00 260.00,2.00 260.00,2.00
             260.00,2.00 260.00,1.00 260.00,1.00 Z
           M 263.00,2.00
           C 263.00,2.00 264.00,2.00 264.00,2.00
             264.00,2.00 263.00,3.00 263.00,3.00
             263.00,3.00 263.00,2.00 263.00,2.00 Z
           M 270.00,4.00
           C 270.00,4.00 271.00,4.00 271.00,4.00
             271.00,4.00 270.00,5.00 270.00,5.00
             270.00,5.00 270.00,4.00 270.00,4.00 Z
           M 274.00,5.00
           C 274.00,5.00 275.00,5.00 275.00,5.00
             275.00,5.00 274.00,6.00 274.00,6.00
             274.00,6.00 274.00,5.00 274.00,5.00 Z
           M 279.00,6.00
           C 279.00,6.00 280.00,6.00 280.00,6.00
             280.00,6.00 279.00,7.00 279.00,7.00
             279.00,7.00 279.00,6.00 279.00,6.00 Z
           M 369.00,15.00
           C 369.00,15.00 370.00,15.00 370.00,15.00
             370.00,15.00 369.00,16.00 369.00,16.00
             369.00,16.00 369.00,15.00 369.00,15.00 Z
           M 382.00,17.00
           C 382.00,17.00 383.00,17.00 383.00,17.00
             383.00,17.00 382.00,18.00 382.00,18.00
             382.00,18.00 382.00,17.00 382.00,17.00 Z
           M 428.00,33.00
           C 428.00,33.00 429.00,33.00 429.00,33.00
             429.00,33.00 428.00,34.00 428.00,34.00
             428.00,34.00 428.00,33.00 428.00,33.00 Z
           M 485.00,112.00
           C 485.00,112.00 486.00,112.00 486.00,112.00
             486.00,112.00 485.00,113.00 485.00,113.00
             485.00,113.00 485.00,112.00 485.00,112.00 Z
           M 486.00,114.00
           C 486.00,114.00 487.00,114.00 487.00,114.00
             487.00,114.00 486.00,115.00 486.00,115.00
             486.00,115.00 486.00,114.00 486.00,114.00 Z
           M 487.00,116.00
           C 487.00,116.00 488.00,116.00 488.00,116.00
             488.00,116.00 487.00,117.00 487.00,117.00
             487.00,117.00 487.00,116.00 487.00,116.00 Z
           M 106.00,291.00
           C 106.00,267.48 108.48,274.16 110.94,256.00
             110.94,256.00 110.94,248.00 110.94,248.00
             113.14,227.45 115.26,214.13 123.58,195.00
             126.07,189.27 130.80,179.84 134.53,175.00
             152.79,151.31 183.31,138.55 212.00,133.39
             219.64,132.01 222.98,131.01 231.00,131.00
             244.26,130.98 246.79,131.09 260.00,132.72
             266.46,133.51 279.29,134.43 285.00,136.22
             285.00,136.22 305.00,145.74 305.00,145.74
             316.52,151.31 332.19,159.22 342.00,167.33
             348.82,172.96 363.87,188.95 370.16,196.00
             370.16,196.00 383.30,211.00 383.30,211.00
             385.23,213.86 392.04,230.22 393.25,234.00
             395.79,241.90 399.03,257.69 399.83,266.00
             399.83,266.00 402.00,286.00 402.00,286.00
             402.00,286.00 366.00,274.00 366.00,274.00
             351.59,269.24 351.63,267.18 336.00,267.00
             336.00,267.00 321.00,266.00 321.00,266.00
             321.00,266.00 278.00,266.00 278.00,266.00
             270.65,266.01 255.24,268.62 248.00,270.48
             242.88,271.79 231.50,275.84 227.00,278.35
             227.00,278.35 216.00,285.91 216.00,285.91
             210.64,289.34 194.21,295.64 188.00,296.68
             175.94,298.69 168.96,292.69 158.00,290.45
             146.21,288.04 117.60,288.08 106.00,291.00 Z
           M 75.00,269.00
           C 75.00,269.00 76.00,269.00 76.00,269.00
             76.00,269.00 75.00,270.00 75.00,270.00
             75.00,270.00 75.00,269.00 75.00,269.00 Z
           M 115.00,412.00
           C 122.31,413.78 124.96,412.64 132.00,410.87
             155.84,404.88 171.28,384.63 175.54,361.00
             175.54,361.00 176.09,351.00 176.09,351.00
             176.69,342.40 178.66,333.69 184.32,327.00
             186.05,324.97 188.40,322.50 190.99,321.61
             194.84,320.29 197.64,322.89 199.91,325.67
             203.57,330.13 208.70,342.33 211.31,348.00
             211.31,348.00 217.55,360.00 217.55,360.00
             220.42,364.44 234.27,381.54 238.04,384.37
             244.78,389.42 259.56,394.89 268.00,395.00
             268.00,395.00 284.00,395.00 284.00,395.00
             293.04,394.99 293.83,393.81 302.00,390.28
             305.96,388.57 312.77,386.03 316.00,383.59
             328.48,374.15 333.39,360.55 337.25,346.00
             340.46,333.84 339.98,321.43 340.00,309.00
             340.01,302.07 339.87,290.68 349.04,290.05
             355.86,289.58 363.44,292.42 370.00,294.29
             370.00,294.29 404.00,303.00 404.00,303.00
             404.00,303.00 404.00,345.00 404.00,345.00
             403.98,356.11 402.02,350.91 402.00,362.00
             402.00,362.00 401.00,398.00 401.00,398.00
             400.96,407.29 398.16,429.43 393.28,437.00
             389.35,443.10 376.27,452.52 370.00,457.00
             370.00,457.00 347.00,475.59 347.00,475.59
             333.73,486.63 313.50,506.65 295.04,505.91
             289.57,505.69 290.13,502.19 285.70,496.00
             280.72,489.04 274.29,483.10 267.00,478.62
             267.00,478.62 235.00,464.75 235.00,464.75
             230.35,462.42 226.90,460.42 223.04,456.83
             219.30,453.36 218.03,450.29 213.00,448.48
             201.37,444.31 190.75,450.28 187.00,450.40
             182.73,450.18 179.86,446.27 172.10,450.40
             165.24,454.35 164.07,465.95 155.96,473.42
             146.48,482.15 139.36,489.00 134.00,501.00
             134.00,501.00 129.00,500.00 129.00,500.00
             129.00,500.00 124.29,474.00 124.29,474.00
             124.29,474.00 123.72,462.00 123.72,462.00
             123.72,462.00 120.55,441.00 120.55,441.00
             120.55,441.00 117.45,428.00 117.45,428.00
             117.45,428.00 115.00,412.00 115.00,412.00 Z
           M 437.00,464.00
           C 437.00,464.00 439.09,405.00 439.09,405.00
             439.09,405.00 442.00,367.00 442.00,367.00
             442.01,362.58 442.36,353.92 444.85,350.29
             448.79,344.56 455.94,341.73 462.00,339.13
             467.32,336.84 480.95,329.86 486.00,329.22
             488.69,328.89 491.37,329.53 494.00,330.00
             495.56,336.38 498.31,337.93 500.63,344.00
             505.36,356.40 507.16,365.79 507.00,379.00
             506.84,391.82 500.61,398.28 495.86,409.00
             495.86,409.00 484.03,436.00 484.03,436.00
             479.63,442.83 470.48,449.94 464.00,454.88
             460.89,457.26 456.52,461.18 453.00,462.48
             448.43,464.16 441.86,464.00 437.00,464.00 Z
           M 73.00,387.00
           C 73.00,387.00 74.00,387.00 74.00,387.00
             74.00,387.00 73.00,388.00 73.00,388.00
             73.00,388.00 73.00,387.00 73.00,387.00 Z
           M 236.00,701.00
           C 236.00,701.00 269.00,695.01 269.00,695.01
             269.00,695.01 277.00,690.77 277.00,690.77
             298.78,678.93 317.93,663.80 337.00,648.08
             337.00,648.08 365.00,627.50 365.00,627.50
             365.00,627.50 388.00,608.00 388.00,608.00
             388.00,608.00 410.90,591.67 410.90,591.67
             413.89,588.93 416.81,583.58 419.76,580.00
             427.17,571.01 429.98,571.12 430.00,559.00
             430.00,559.00 430.00,498.00 430.00,498.00
             430.01,489.31 431.77,485.15 434.52,477.00
             435.26,474.78 436.73,470.36 438.65,468.99
             439.79,468.17 452.69,466.31 455.00,466.00
             455.00,466.00 455.00,509.00 455.00,509.00
             455.00,509.00 457.00,539.00 457.00,539.00
             457.00,539.00 457.00,578.00 457.00,578.00
             457.02,589.14 461.47,590.30 468.99,598.00
             468.99,598.00 481.00,611.00 481.00,611.00
             487.68,617.71 492.52,619.42 490.13,629.00
             489.61,631.05 489.11,633.14 488.07,635.00
             486.15,638.42 472.53,653.24 469.02,657.00
             469.02,657.00 458.71,668.57 458.71,668.57
             458.71,668.57 440.00,684.44 440.00,684.44
             440.00,684.44 418.09,703.74 418.09,703.74
             418.09,703.74 374.00,743.16 374.00,743.16
             365.66,750.61 357.61,758.79 348.00,764.60
             341.61,768.46 334.88,771.82 329.00,776.45
             321.20,782.60 311.91,792.58 301.00,791.45
             301.00,791.45 287.00,787.88 287.00,787.88
             281.43,786.42 267.47,783.26 263.17,780.65
             263.17,780.65 255.99,775.13 255.99,775.13
             253.51,773.23 247.44,769.13 246.02,766.70
             246.02,766.70 243.79,750.00 243.79,750.00
             240.41,733.96 236.75,717.41 236.00,701.00 Z
           M 121.00,480.00
           C 121.00,480.00 122.00,480.00 122.00,480.00
             122.00,480.00 121.00,481.00 121.00,481.00
             121.00,481.00 121.00,480.00 121.00,480.00 Z
           M 182.00,576.00
           C 173.38,578.13 172.69,576.06 166.32,569.42
             153.89,556.48 154.97,543.60 155.00,527.00
             155.02,514.11 156.28,513.10 163.87,503.00
             166.70,499.24 168.56,496.08 173.01,494.11
             179.83,491.08 181.73,493.54 188.00,492.33
             191.73,491.61 197.45,489.57 201.00,489.81
             201.00,489.81 226.00,496.12 226.00,496.12
             235.27,498.25 244.87,499.96 253.00,505.24
             256.04,507.22 261.22,510.99 263.07,514.04
             265.09,517.36 267.04,526.90 267.75,531.00
             270.50,546.84 271.00,550.92 271.00,567.00
             271.00,567.00 229.00,583.00 229.00,583.00
             225.06,573.70 223.08,565.22 224.17,555.00
             225.00,547.30 227.96,543.55 228.00,530.00
             228.00,530.00 210.00,534.71 210.00,534.71
             200.02,536.01 185.15,534.82 175.00,534.00
             175.01,547.56 182.00,557.11 182.00,576.00 Z
           M 127.00,522.00
           C 127.00,522.00 128.00,522.00 128.00,522.00
             128.00,522.00 127.00,523.00 127.00,523.00
             127.00,523.00 127.00,522.00 127.00,522.00 Z
           M 128.00,526.00
           C 128.00,526.00 129.00,526.00 129.00,526.00
             129.00,526.00 128.00,527.00 128.00,527.00
             128.00,527.00 128.00,526.00 128.00,526.00 Z
           M 153.00,621.00
           C 153.00,621.00 154.00,621.00 154.00,621.00
             154.00,621.00 153.00,622.00 153.00,622.00
             153.00,622.00 153.00,621.00 153.00,621.00 Z
           M 155.00,630.00
           C 155.00,630.00 156.00,630.00 156.00,630.00
             156.00,630.00 155.00,631.00 155.00,631.00
             155.00,631.00 155.00,630.00 155.00,630.00 Z" />
  <path id="Sélection #1"
        fill="#1a1a1a" stroke="black" stroke-width="1"
        d="M 300.00,13.00
           C 307.12,11.25 318.80,10.20 326.00,11.46
             326.00,11.46 337.00,13.71 337.00,13.71
             337.00,13.71 346.00,14.29 346.00,14.29
             346.00,14.29 391.00,24.69 391.00,24.69
             391.00,24.69 407.00,31.20 407.00,31.20
             415.27,34.52 433.01,40.91 439.00,46.18
             447.60,53.75 448.17,58.63 453.31,68.00
             453.31,68.00 465.00,87.00 465.00,87.00
             465.00,87.00 480.26,116.00 480.26,116.00
             480.26,116.00 490.49,134.00 490.49,134.00
             496.11,146.57 505.55,176.31 508.65,190.00
             511.17,201.15 515.12,217.89 515.00,229.00
             514.80,245.89 506.84,287.96 501.14,304.00
             501.14,304.00 495.60,318.00 495.60,318.00
             495.04,320.08 494.98,323.63 493.26,325.00
             491.18,326.67 486.43,325.44 484.00,325.00
             483.46,331.83 479.79,331.60 474.00,334.01
             474.00,334.01 456.00,342.04 456.00,342.04
             441.30,349.95 442.17,357.25 442.00,372.00
             442.00,372.00 439.09,406.00 439.09,406.00
             439.09,406.00 437.00,460.00 437.00,460.00
             436.98,474.64 430.02,482.86 430.00,498.00
             430.00,498.00 430.00,552.00 430.00,552.00
             429.99,556.78 429.19,567.97 427.02,572.00
             427.02,572.00 418.12,583.00 418.12,583.00
             415.67,586.14 413.96,589.85 410.90,592.47
             407.11,595.72 399.47,599.02 390.00,607.13
             390.00,607.13 366.00,627.50 366.00,627.50
             366.00,627.50 338.00,648.00 338.00,648.00
             317.70,664.09 301.00,678.27 278.00,690.77
             278.00,690.77 270.00,695.01 270.00,695.01
             270.00,695.01 247.00,699.20 247.00,699.20
             247.00,699.20 223.00,702.96 223.00,702.96
             216.43,703.24 213.97,702.14 211.01,702.14
             207.07,702.15 206.12,703.72 202.91,703.71
             195.35,703.71 181.25,697.55 175.00,693.33
             170.50,690.29 160.41,681.93 158.60,677.00
             157.88,675.06 158.00,672.09 158.00,670.00
             158.00,670.00 158.00,645.00 158.00,645.00
             157.88,635.03 153.20,622.81 151.46,613.00
             150.51,607.63 151.61,604.86 150.08,599.00
             150.08,599.00 142.35,577.00 142.35,577.00
             142.35,577.00 139.65,567.00 139.65,567.00
             139.65,567.00 130.67,536.00 130.67,536.00
             130.67,536.00 129.54,528.00 129.54,528.00
             128.03,519.71 127.01,520.60 127.00,511.00
             127.00,511.00 127.00,500.00 127.00,500.00
             127.00,500.00 134.00,501.00 134.00,501.00
             137.32,489.61 147.53,480.33 155.96,472.58
             163.70,465.45 165.04,454.16 171.21,450.56
             178.86,446.08 182.47,449.68 187.00,449.76
             190.66,449.83 204.02,443.99 214.96,448.85
             220.57,451.35 221.77,457.33 234.00,463.74
             234.00,463.74 267.00,478.02 267.00,478.02
             274.64,482.55 281.43,488.60 286.40,496.00
             289.18,500.12 290.12,505.86 296.02,505.77
             313.86,505.52 333.95,485.63 347.00,474.75
             347.00,474.75 374.00,453.37 374.00,453.37
             379.51,449.27 389.70,441.55 393.28,436.00
             400.53,424.74 400.85,398.39 401.00,385.00
             401.00,385.00 401.96,375.00 401.96,375.00
             401.96,375.00 401.96,360.00 401.96,360.00
             402.05,350.31 403.98,354.94 404.00,344.00
             404.00,344.00 404.00,304.00 404.00,304.00
             410.98,304.59 421.89,308.25 429.00,310.29
             436.12,312.34 445.76,314.56 451.99,318.35
             458.72,322.45 463.55,332.18 467.18,333.23
             469.52,333.91 475.46,332.52 473.26,327.98
             473.26,327.98 460.96,312.11 460.96,312.11
             456.45,307.87 452.41,307.16 447.00,304.69
             447.00,304.69 418.00,292.40 418.00,292.40
             414.94,291.17 404.34,287.46 402.60,285.49
             400.50,283.12 400.18,271.60 399.91,268.00
             399.29,259.49 396.19,245.34 393.85,237.00
             392.61,232.60 385.62,215.44 383.30,212.00
             379.92,206.98 361.11,187.11 356.00,182.00
             356.00,182.00 341.00,167.33 341.00,167.33
             337.08,164.09 316.78,151.52 312.00,149.31
             307.72,147.33 292.07,140.73 289.57,138.10
             288.38,136.85 288.50,136.45 288.00,135.00
             296.20,136.16 309.63,141.21 318.00,144.00
             331.44,148.48 348.55,153.88 361.00,160.26
             379.33,169.65 383.86,174.24 400.00,185.00
             408.69,190.79 430.73,204.37 436.71,211.01
             446.32,221.69 445.03,225.49 451.00,237.00
             448.07,215.32 437.49,178.24 429.14,158.00
             429.14,158.00 409.26,117.00 409.26,117.00
             397.17,93.58 385.93,75.66 368.17,56.00
             368.17,56.00 360.99,48.17 360.99,48.17
             352.67,40.46 343.46,32.99 333.00,28.35
             319.49,22.34 313.87,24.04 300.00,13.00 Z
           M 212.00,132.00
           C 212.00,132.00 213.00,132.00 213.00,132.00
             213.00,132.00 212.00,133.00 212.00,133.00
             212.00,133.00 212.00,132.00 212.00,132.00 Z
           M 206.00,133.00
           C 206.00,133.00 207.00,133.00 207.00,133.00
             207.00,133.00 206.00,134.00 206.00,134.00
             206.00,134.00 206.00,133.00 206.00,133.00 Z
           M 198.00,135.00
           C 198.00,135.00 199.00,135.00 199.00,135.00
             199.00,135.00 198.00,136.00 198.00,136.00
             198.00,136.00 198.00,135.00 198.00,135.00 Z
           M 160.00,151.00
           C 160.00,151.00 161.00,151.00 161.00,151.00
             161.00,151.00 160.00,152.00 160.00,152.00
             160.00,152.00 160.00,151.00 160.00,151.00 Z
           M 149.00,158.00
           C 149.00,158.00 150.00,158.00 150.00,158.00
             150.00,158.00 149.00,159.00 149.00,159.00
             149.00,159.00 149.00,158.00 149.00,158.00 Z
           M 127.00,185.00
           C 127.00,185.00 128.00,185.00 128.00,185.00
             128.00,185.00 127.00,186.00 127.00,186.00
             127.00,186.00 127.00,185.00 127.00,185.00 Z
           M 123.00,193.00
           C 123.00,193.00 124.00,193.00 124.00,193.00
             124.00,193.00 123.00,194.00 123.00,194.00
             123.00,194.00 123.00,193.00 123.00,193.00 Z
           M 118.00,205.00
           C 118.00,205.00 119.00,205.00 119.00,205.00
             119.00,205.00 118.00,206.00 118.00,206.00
             118.00,206.00 118.00,205.00 118.00,205.00 Z
           M 455.00,246.00
           C 455.00,246.00 454.00,246.00 454.00,246.00
             454.00,246.00 455.00,247.00 455.00,247.00
             455.00,247.00 455.00,246.00 455.00,246.00 Z
           M 456.00,249.00
           C 456.00,249.00 455.00,249.00 455.00,249.00
             455.00,249.00 456.00,250.00 456.00,250.00
             456.00,250.00 456.00,249.00 456.00,249.00 Z
           M 108.00,264.00
           C 108.00,264.00 109.00,264.00 109.00,264.00
             109.00,264.00 108.00,265.00 108.00,265.00
             108.00,265.00 108.00,264.00 108.00,264.00 Z
           M 49.00,311.00
           C 70.14,304.08 101.97,292.03 124.00,292.00
             124.00,292.00 142.00,292.00 142.00,292.00
             162.25,292.03 167.91,299.84 181.00,300.00
             192.63,300.14 205.88,295.90 216.00,290.12
             216.00,290.12 231.00,280.32 231.00,280.32
             243.29,274.39 266.38,269.02 280.00,269.00
             280.00,269.00 319.00,269.00 319.00,269.00
             319.00,269.00 334.00,270.00 334.00,270.00
             350.08,270.18 351.19,272.92 366.00,277.66
             366.00,277.66 414.00,294.60 414.00,294.60
             414.00,294.60 445.00,307.69 445.00,307.69
             448.82,309.44 453.76,310.91 456.99,313.41
             460.73,316.32 467.03,325.71 470.00,330.00
             461.67,325.71 461.98,318.77 450.00,313.31
             450.00,313.31 392.00,296.58 392.00,296.58
             383.27,294.15 359.60,287.09 352.00,287.00
             349.54,286.98 345.51,286.79 343.32,287.85
             337.17,290.85 337.01,301.12 337.00,307.00
             337.00,307.00 337.00,322.00 337.00,322.00
             336.98,334.13 332.24,355.48 326.48,366.00
             323.83,370.84 319.23,376.26 315.00,379.78
             311.05,383.07 304.79,385.21 300.00,387.28
             291.83,390.81 291.04,391.99 282.00,392.00
             282.00,392.00 270.00,392.00 270.00,392.00
             261.69,391.90 246.66,386.42 240.09,381.37
             232.62,375.62 220.06,357.76 215.76,349.00
             212.07,341.50 205.36,323.38 198.54,319.30
             196.58,318.13 194.24,317.91 192.00,318.06
             184.85,318.56 177.39,328.51 175.54,335.00
             172.59,345.36 173.70,352.52 172.54,359.00
             170.27,371.58 164.62,383.57 155.91,393.00
             142.11,407.93 119.07,413.69 100.00,406.39
             94.79,404.39 90.63,403.25 86.89,398.90
             75.95,386.17 70.15,369.92 65.44,354.00
             65.44,354.00 61.30,337.00 61.30,337.00
             54.62,317.66 51.03,325.95 49.00,311.00 Z
           M 97.00,281.00
           C 97.00,281.00 106.00,277.00 106.00,277.00
             106.00,277.00 106.00,291.00 106.00,291.00
             99.09,290.44 98.16,287.39 97.00,281.00 Z
           M 229.00,584.00
           C 229.00,584.00 260.00,572.00 260.00,572.00
             262.67,570.93 269.46,568.71 270.98,566.50
             272.33,564.54 272.02,559.45 272.00,557.00
             271.90,548.53 269.59,536.53 268.08,528.00
             267.44,524.39 265.26,515.21 263.19,512.46
             261.80,510.62 258.89,508.53 257.00,507.13
             247.24,499.90 240.48,498.37 229.00,496.00
             229.00,496.00 202.00,489.20 202.00,489.20
             197.02,488.70 191.93,491.00 187.00,491.70
             187.00,491.70 175.00,492.61 175.00,492.61
             168.67,494.32 165.65,499.06 161.88,504.00
             157.58,509.64 155.13,511.69 155.00,519.00
             155.00,519.00 155.61,553.00 155.61,553.00
             156.54,556.60 158.37,559.87 160.32,563.00
             163.25,567.70 169.60,576.13 175.00,577.81
             181.90,579.96 183.35,572.99 182.83,568.00
             182.83,568.00 175.00,535.00 175.00,535.00
             175.00,535.00 188.00,536.00 188.00,536.00
             206.08,536.08 209.41,536.86 227.00,531.00
             226.99,542.61 225.97,540.18 224.22,550.00
             223.96,553.06 224.00,554.96 224.22,558.00
             223.98,569.74 222.94,573.30 229.00,584.00 Z
           M 235.00,704.00
           C 235.00,704.00 236.00,704.00 236.00,704.00
             236.00,704.00 235.00,705.00 235.00,705.00
             235.00,705.00 235.00,704.00 235.00,704.00 Z
           M 236.00,715.00
           C 236.00,715.00 237.00,715.00 237.00,715.00
             237.00,715.00 236.00,716.00 236.00,716.00
             236.00,716.00 236.00,715.00 236.00,715.00 Z
           M 172.00,739.00
           C 172.00,739.00 173.00,739.00 173.00,739.00
             173.00,739.00 172.00,740.00 172.00,740.00
             172.00,740.00 172.00,739.00 172.00,739.00 Z
           M 601.00,745.00
           C 601.00,745.00 602.00,745.00 602.00,745.00
             602.00,745.00 601.00,746.00 601.00,746.00
             601.00,746.00 601.00,745.00 601.00,745.00 Z
           M 242.00,747.00
           C 242.00,747.00 243.00,747.00 243.00,747.00
             243.00,747.00 242.00,748.00 242.00,748.00
             242.00,748.00 242.00,747.00 242.00,747.00 Z
           M 179.00,748.00
           C 179.00,748.00 180.00,748.00 180.00,748.00
             180.00,748.00 179.00,749.00 179.00,749.00
             179.00,749.00 179.00,748.00 179.00,748.00 Z
           M 244.00,757.00
           C 244.00,757.00 245.00,757.00 245.00,757.00
             245.00,757.00 244.00,758.00 244.00,758.00
             244.00,758.00 244.00,757.00 244.00,757.00 Z
           M 563.00,767.00
           C 563.00,767.00 564.00,767.00 564.00,767.00
             564.00,767.00 563.00,768.00 563.00,768.00
             563.00,768.00 563.00,767.00 563.00,767.00 Z
           M 558.00,770.00
           C 558.00,770.00 559.00,770.00 559.00,770.00
             559.00,770.00 558.00,771.00 558.00,771.00
             558.00,771.00 558.00,770.00 558.00,770.00 Z
           M 227.00,772.00
           C 227.00,772.00 228.00,772.00 228.00,772.00
             228.00,772.00 227.00,773.00 227.00,773.00
             227.00,773.00 227.00,772.00 227.00,772.00 Z
           M 549.00,775.00
           C 549.00,775.00 550.00,775.00 550.00,775.00
             550.00,775.00 549.00,776.00 549.00,776.00
             549.00,776.00 549.00,775.00 549.00,775.00 Z
           M 319.00,809.00
           C 319.00,809.00 320.00,809.00 320.00,809.00
             320.00,809.00 319.00,810.00 319.00,810.00
             319.00,810.00 319.00,809.00 319.00,809.00 Z
           M 326.00,813.00
           C 326.00,813.00 327.00,813.00 327.00,813.00
             327.00,813.00 326.00,814.00 326.00,814.00
             326.00,814.00 326.00,813.00 326.00,813.00 Z
           M 335.00,818.00
           C 335.00,818.00 336.00,818.00 336.00,818.00
             336.00,818.00 335.00,819.00 335.00,819.00
             335.00,819.00 335.00,818.00 335.00,818.00 Z
           M 346.00,824.00
           C 346.00,824.00 347.00,824.00 347.00,824.00
             347.00,824.00 346.00,825.00 346.00,825.00
             346.00,825.00 346.00,824.00 346.00,824.00 Z
           M 356.00,831.00
           C 356.00,831.00 357.00,831.00 357.00,831.00
             357.00,831.00 356.00,832.00 356.00,832.00
             356.00,832.00 356.00,831.00 356.00,831.00 Z
           M 381.00,855.00
           C 381.00,855.00 382.00,855.00 382.00,855.00
             382.00,855.00 381.00,856.00 381.00,856.00
             381.00,856.00 381.00,855.00 381.00,855.00 Z" />
  <path id="Sélection"
        fill="black" stroke="black" stroke-width="1"
        d="M 93.16,293.00
           C 93.26,290.94 93.89,287.97 93.16,286.00
             90.82,277.55 81.40,275.08 77.45,272.08
             77.45,272.08 57.90,250.00 57.90,250.00
             57.90,250.00 50.77,237.00 50.77,237.00
             50.77,237.00 32.49,205.83 32.49,205.83
             32.49,205.83 20.75,180.00 20.75,180.00
             20.75,180.00 13.69,167.00 13.69,167.00
             13.69,167.00 5.64,144.00 5.64,144.00
             3.17,136.44 0.11,128.06 0.00,120.00
             -0.19,105.14 -1.16,84.48 5.55,71.00
             9.19,63.69 22.28,52.76 29.00,47.85
             36.66,42.25 62.73,26.31 71.00,23.12
             71.00,23.12 95.00,16.85 95.00,16.85
             95.00,16.85 120.00,8.90 120.00,8.90
             133.24,5.67 174.50,0.02 188.00,0.00
             188.00,0.00 222.00,0.00 222.00,0.00
             222.00,0.00 237.00,1.16 237.00,1.16
             237.00,1.16 259.00,1.16 259.00,1.16
             259.00,1.16 282.00,6.83 282.00,6.83
             282.00,6.83 326.00,8.00 326.00,8.00
             334.21,8.10 354.49,12.10 363.00,14.12
             363.00,14.12 383.00,17.76 383.00,17.76
             383.00,17.76 397.00,22.92 397.00,22.92
             397.00,22.92 411.00,26.98 411.00,26.98
             420.64,29.94 438.87,35.67 445.53,43.10
             450.57,48.72 452.92,54.68 456.44,61.00
             456.44,61.00 470.01,84.00 470.01,84.00
             470.01,84.00 496.69,133.00 496.69,133.00
             496.69,133.00 510.51,172.00 510.51,172.00
             510.51,172.00 514.40,191.00 514.40,191.00
             515.82,198.08 520.25,217.91 519.82,224.00
             518.27,245.79 516.20,255.07 512.42,276.00
             512.42,276.00 509.41,292.00 509.41,292.00
             509.41,292.00 499.98,324.00 499.98,324.00
             499.98,324.00 498.25,331.28 498.25,331.28
             498.37,334.29 502.16,339.62 503.45,343.00
             505.85,349.33 508.92,362.31 509.00,369.00
             509.00,369.00 509.00,383.00 509.00,383.00
             508.89,391.03 506.84,392.08 503.87,399.00
             503.87,399.00 500.13,409.00 500.13,409.00
             500.13,409.00 494.26,421.00 494.26,421.00
             491.04,427.64 489.18,435.01 484.75,441.00
             478.59,449.32 475.72,450.62 468.00,456.66
             465.35,458.74 459.49,463.23 458.02,466.04
             456.81,468.36 457.01,471.43 457.00,474.00
             456.98,485.04 456.55,496.04 458.00,507.00
             463.74,507.00 473.90,506.44 479.00,508.26
             483.11,509.72 488.50,514.22 492.00,517.00
             492.00,517.00 515.00,536.58 515.00,536.58
             515.00,536.58 540.00,559.71 540.00,559.71
             544.62,563.73 553.05,569.50 556.37,574.01
             556.37,574.01 564.26,589.00 564.26,589.00
             571.18,602.42 572.69,604.16 578.05,619.00
             578.05,619.00 582.01,634.00 582.01,634.00
             585.26,640.12 593.19,642.11 596.07,646.32
             597.90,649.01 597.62,652.09 598.40,655.00
             599.16,657.84 601.34,661.41 602.86,664.00
             602.86,664.00 631.87,709.00 631.87,709.00
             637.60,718.83 641.85,718.33 640.85,724.95
             640.03,730.40 630.51,731.81 626.00,733.33
             610.82,738.47 597.99,749.07 584.00,756.51
             584.00,756.51 557.00,771.57 557.00,771.57
             557.00,771.57 545.04,778.32 545.04,778.32
             545.04,778.32 531.00,787.69 531.00,787.69
             531.00,787.69 483.00,813.61 483.00,813.61
             483.00,813.61 451.00,843.58 451.00,843.58
             447.18,846.46 439.72,848.43 435.00,850.00
             426.65,852.78 409.08,858.90 401.00,859.00
             397.79,859.03 388.57,859.30 386.00,858.42
             376.37,855.11 369.78,841.92 362.00,836.00
             362.00,836.00 348.00,825.70 348.00,825.70
             338.52,819.60 310.26,804.24 300.00,800.20
             300.00,800.20 257.00,783.58 257.00,783.58
             257.00,783.58 230.00,773.35 230.00,773.35
             230.00,773.35 215.00,768.90 215.00,768.90
             206.87,766.94 200.63,767.45 193.00,762.30
             188.92,759.55 182.02,751.97 178.80,748.00
             164.40,730.19 160.89,718.49 161.00,696.00
             161.03,690.65 161.11,690.03 163.00,685.00
             163.00,685.00 184.00,698.10 184.00,698.10
             184.00,698.10 202.91,703.44 202.91,703.44
             202.91,703.44 211.01,702.05 211.01,702.05
             211.01,702.05 218.00,702.83 218.00,702.83
             218.00,702.83 235.00,701.00 235.00,701.00
             235.00,701.00 236.29,714.00 236.29,714.00
             236.29,714.00 243.12,750.00 243.12,750.00
             243.96,753.77 244.83,764.31 246.60,766.70
             248.02,768.63 252.87,772.02 255.00,773.63
             258.00,775.90 261.93,779.55 265.04,781.17
             268.67,783.07 281.38,786.20 286.00,787.37
             286.00,787.37 301.00,791.16 301.00,791.16
             311.55,792.19 320.42,782.43 328.00,776.45
             334.18,771.58 341.31,768.10 348.00,764.00
             356.42,758.83 365.48,749.88 373.00,743.16
             373.00,743.16 419.04,702.08 419.04,702.08
             419.04,702.08 440.00,683.63 440.00,683.63
             440.00,683.63 456.87,670.57 456.87,670.57
             456.87,670.57 469.02,656.00 469.02,656.00
             472.53,652.24 486.15,637.42 488.07,634.00
             494.36,622.80 488.60,619.64 481.00,612.00
             481.00,612.00 468.99,599.00 468.99,599.00
             461.47,591.30 457.02,590.14 457.00,579.00
             457.00,579.00 457.00,540.00 457.00,540.00
             457.00,540.00 455.00,510.00 455.00,510.00
             455.00,510.00 455.00,466.00 455.00,466.00
             455.00,466.00 438.65,469.60 438.65,469.60
             438.65,469.60 434.00,477.00 434.00,477.00
             434.00,477.00 437.00,464.00 437.00,464.00
             441.59,464.00 447.67,464.07 452.00,462.48
             455.52,461.18 459.89,457.26 463.00,454.88
             469.65,449.81 479.55,441.97 484.03,435.00
             484.03,435.00 496.31,407.00 496.31,407.00
             501.08,396.65 506.85,390.41 507.00,378.00
             507.14,366.26 504.81,355.97 500.63,345.00
             498.14,338.48 494.98,337.04 494.00,330.00
             494.00,330.00 484.00,329.00 484.00,329.00
             484.00,329.00 484.00,324.98 484.00,324.98
             486.41,325.32 490.47,326.34 492.57,324.98
             495.01,323.37 494.91,319.58 495.60,317.00
             495.60,317.00 500.77,304.00 500.77,304.00
             505.16,292.23 508.99,272.64 511.08,260.00
             512.64,250.60 514.77,238.40 514.99,229.00
             515.19,219.79 510.82,200.60 508.65,191.00
             505.55,177.31 496.11,147.57 490.49,135.00
             490.49,135.00 480.26,117.00 480.26,117.00
             480.26,117.00 464.40,87.00 464.40,87.00
             464.40,87.00 453.31,69.00 453.31,69.00
             447.52,58.46 447.11,53.66 437.00,45.33
             430.44,39.91 426.19,39.87 419.00,36.69
             398.66,27.69 388.93,23.52 367.00,18.79
             367.00,18.79 345.00,14.29 345.00,14.29
             345.00,14.29 335.00,13.56 335.00,13.56
             335.00,13.56 324.00,11.30 324.00,11.30
             316.80,10.27 306.59,10.94 300.00,14.00
             308.32,16.38 309.33,19.46 316.00,22.24
             330.85,28.43 334.31,26.42 350.00,37.78
             361.22,45.91 373.99,60.87 382.37,72.00
             396.90,91.29 407.56,112.47 418.25,134.00
             418.25,134.00 429.55,158.00 429.55,158.00
             429.55,158.00 435.34,175.00 435.34,175.00
             440.95,191.17 445.44,207.20 448.80,224.00
             449.63,228.16 452.62,238.59 452.00,242.00
             450.01,236.26 444.87,222.55 441.62,218.00
             431.29,203.50 407.09,190.83 392.00,180.28
             379.18,171.32 372.42,166.29 358.00,159.26
             346.39,153.60 333.26,149.42 321.00,145.33
             321.00,145.33 293.00,136.19 293.00,136.19
             293.00,136.19 285.00,135.46 285.00,135.46
             285.00,135.46 267.00,132.84 267.00,132.84
             230.31,128.91 206.04,129.43 172.00,145.75
             164.80,149.19 155.15,154.39 149.00,159.38
             145.51,162.21 143.74,164.78 140.83,168.00
             138.02,171.11 135.27,173.54 132.79,177.00
             124.63,188.38 115.94,210.14 113.46,224.00
             113.46,224.00 109.93,251.00 109.93,251.00
             109.93,251.00 109.93,259.00 109.93,259.00
             109.93,259.00 106.00,277.00 106.00,277.00
             106.00,277.00 97.00,281.00 97.00,281.00
             98.04,284.82 99.45,289.79 104.02,290.52
             104.02,290.52 120.00,289.00 120.00,289.00
             120.00,289.00 145.00,289.00 145.00,289.00
             151.40,289.01 157.88,289.79 164.00,291.75
             172.94,294.60 179.12,298.74 189.00,296.24
             220.22,288.35 218.99,277.06 248.00,270.24
             255.55,268.46 269.41,266.01 277.00,266.00
             277.00,266.00 322.00,266.00 322.00,266.00
             322.00,266.00 337.00,267.00 337.00,267.00
             353.08,267.18 354.19,269.92 369.00,274.66
             369.00,274.66 413.00,290.00 413.00,290.00
             413.00,290.00 448.00,304.69 448.00,304.69
             453.99,307.43 458.08,307.96 462.82,313.04
             462.82,313.04 473.92,327.98 473.92,327.98
             475.75,332.27 470.66,334.29 467.18,333.62
             464.40,333.08 461.81,329.11 460.00,327.00
             455.17,321.38 453.92,319.47 447.00,316.31
             447.00,316.31 422.00,308.58 422.00,308.58
             422.00,308.58 374.00,295.63 374.00,295.63
             367.67,294.02 352.87,288.58 347.18,290.51
             340.18,292.89 340.01,303.93 340.00,310.00
             340.00,310.00 340.00,325.00 340.00,325.00
             339.98,337.13 335.24,358.48 329.48,369.00
             326.83,373.84 322.23,379.26 318.00,382.78
             314.05,386.07 307.79,388.21 303.00,390.28
             294.83,393.81 294.04,394.99 285.00,395.00
             285.00,395.00 267.00,395.00 267.00,395.00
             258.69,394.90 243.66,389.42 237.09,384.37
             233.64,381.71 220.21,365.12 217.55,361.00
             217.55,361.00 211.31,349.00 211.31,349.00
             208.71,343.35 203.44,330.96 199.91,326.46
             198.13,324.19 195.18,320.93 191.96,321.73
             189.29,322.40 186.06,325.93 184.32,328.00
             178.65,334.78 176.70,343.31 175.89,352.00
             175.89,352.00 175.89,361.00 175.89,361.00
             172.30,384.57 156.47,404.98 133.00,410.87
             126.19,412.58 122.02,413.99 115.00,412.00
             115.00,412.00 117.45,427.00 117.45,427.00
             117.45,427.00 120.55,440.00 120.55,440.00
             120.55,440.00 123.72,461.00 123.72,461.00
             123.72,461.00 124.44,474.00 124.44,474.00
             124.44,474.00 128.72,496.91 128.72,496.91
             128.72,496.91 127.00,508.00 127.00,508.00
             127.00,508.00 125.85,517.00 125.85,517.00
             125.85,517.00 125.85,501.00 125.85,501.00
             125.85,501.00 121.00,473.00 121.00,473.00
             121.00,473.00 117.69,443.00 117.69,443.00
             117.69,443.00 112.00,412.00 112.00,412.00
             104.95,411.94 92.84,409.33 87.17,405.08
             84.07,402.76 74.48,389.63 72.76,386.00
             72.76,386.00 69.31,376.00 69.31,376.00
             69.31,376.00 62.75,359.00 62.75,359.00
             62.75,359.00 57.28,338.00 57.28,338.00
             54.41,328.89 50.09,328.93 47.70,323.83
             45.77,319.73 46.00,312.53 46.00,308.00
             46.00,308.00 58.00,303.55 58.00,303.55
             58.00,303.55 93.16,293.00 93.16,293.00 Z
           M 454.00,246.00
           C 454.00,246.00 455.00,246.00 455.00,246.00
             455.00,246.00 454.00,247.00 454.00,247.00
             454.00,247.00 454.00,246.00 454.00,246.00 Z
           M 455.00,249.00
           C 455.00,249.00 456.00,249.00 456.00,249.00
             456.00,249.00 455.00,250.00 455.00,250.00
             455.00,250.00 455.00,249.00 455.00,249.00 Z
           M 465.00,325.00
           C 461.49,314.01 455.36,312.28 446.00,308.14
             446.00,308.14 434.00,302.72 434.00,302.72
             412.08,293.26 389.78,285.05 367.00,277.98
             351.93,273.29 350.40,270.19 334.00,270.00
             334.00,270.00 319.00,269.00 319.00,269.00
             295.39,268.96 270.91,267.24 248.00,274.04
             242.96,275.53 233.45,278.87 229.00,281.35
             229.00,281.35 216.00,290.12 216.00,290.12
             205.88,295.90 192.63,300.14 181.00,300.00
             167.91,299.84 162.25,292.03 142.00,292.00
             142.00,292.00 124.00,292.00 124.00,292.00
             101.97,292.03 70.14,304.08 49.00,311.00
             51.03,325.95 54.62,317.66 61.30,337.00
             61.30,337.00 65.44,354.00 65.44,354.00
             70.15,369.92 75.95,386.17 86.89,398.90
             90.63,403.25 94.79,404.39 100.00,406.39
             119.07,413.69 142.11,407.93 155.91,393.00
             164.62,383.57 170.27,371.58 172.54,359.00
             173.60,353.11 172.32,348.63 175.30,336.00
             176.81,329.59 184.16,319.16 191.00,318.15
             193.39,317.79 196.43,318.04 198.54,319.30
             205.28,323.32 211.70,340.65 215.26,348.00
             219.72,357.22 232.23,375.32 240.09,381.37
             246.66,386.42 261.69,391.90 270.00,392.00
             270.00,392.00 282.00,392.00 282.00,392.00
             291.04,391.99 291.83,390.81 300.00,387.28
             303.95,385.57 310.78,383.02 314.00,380.59
             324.45,372.68 327.43,364.70 331.33,353.00
             331.33,353.00 334.71,342.00 334.71,342.00
             337.79,327.39 336.84,319.34 337.00,305.00
             337.06,300.17 337.59,293.22 341.06,289.57
             344.00,286.47 348.08,286.96 352.00,287.00
             359.60,287.09 383.27,294.15 392.00,296.58
             392.00,296.58 431.00,307.29 431.00,307.29
             438.13,309.34 446.55,311.24 453.00,314.80
             457.94,317.52 460.58,321.68 465.00,325.00 Z
           M 466.00,325.00
           C 466.00,325.00 465.00,325.00 465.00,325.00
             465.00,325.00 466.00,326.00 466.00,326.00
             466.00,326.00 466.00,325.00 466.00,325.00 Z
           M 467.00,326.00
           C 467.04,328.79 467.64,328.70 470.00,330.00
             470.00,330.00 467.00,326.00 467.00,326.00 Z
           M 430.00,489.00
           C 430.00,489.00 431.00,489.00 431.00,489.00
             431.00,489.00 430.00,490.00 430.00,490.00
             430.00,490.00 430.00,489.00 430.00,489.00 Z
           M 132.00,543.00
           C 132.00,543.00 133.00,543.00 133.00,543.00
             133.00,543.00 132.00,544.00 132.00,544.00
             132.00,544.00 132.00,543.00 132.00,543.00 Z
           M 133.00,547.00
           C 133.00,547.00 134.00,547.00 134.00,547.00
             134.00,547.00 133.00,548.00 133.00,548.00
             133.00,548.00 133.00,547.00 133.00,547.00 Z
           M 136.00,557.00
           C 136.00,557.00 137.00,557.00 137.00,557.00
             137.00,557.00 136.00,558.00 136.00,558.00
             136.00,558.00 136.00,557.00 136.00,557.00 Z
           M 429.00,560.00
           C 430.53,563.86 430.25,566.53 428.00,570.00
             428.00,570.00 429.00,560.00 429.00,560.00 Z
           M 154.00,625.00
           C 154.00,625.00 155.00,625.00 155.00,625.00
             155.00,625.00 154.00,626.00 154.00,626.00
             154.00,626.00 154.00,625.00 154.00,625.00 Z
           M 155.00,629.00
           C 155.00,629.00 156.00,629.00 156.00,629.00
             156.00,629.00 155.00,630.00 155.00,630.00
             155.00,630.00 155.00,629.00 155.00,629.00 Z
           M 156.00,634.00
           C 156.00,634.00 157.00,634.00 157.00,634.00
             157.00,634.00 156.00,635.00 156.00,635.00
             156.00,635.00 156.00,634.00 156.00,634.00 Z
           M 334.00,650.00
           C 334.00,650.00 335.00,650.00 335.00,650.00
             335.00,650.00 334.00,651.00 334.00,651.00
             334.00,651.00 334.00,650.00 334.00,650.00 Z
           M 324.00,658.00
           C 324.00,658.00 321.00,662.00 321.00,662.00
             321.00,662.00 324.00,658.00 324.00,658.00 Z
           M 256.00,697.00
           C 256.00,697.00 257.00,697.00 257.00,697.00
             257.00,697.00 256.00,698.00 256.00,698.00
             256.00,698.00 256.00,697.00 256.00,697.00 Z
           M 250.00,698.00
           C 250.00,698.00 251.00,698.00 251.00,698.00
             251.00,698.00 250.00,699.00 250.00,699.00
             250.00,699.00 250.00,698.00 250.00,698.00 Z" />
</svg>
