<?xml version="1.0" encoding="UTF-8" standalone="no"?>
<!DOCTYPE svg PUBLIC "-//W3C//DTD SVG 20010904//EN"
              "http://www.w3.org/TR/2001/REC-SVG-20010904/DTD/svg10.dtd">

<svg xmlns="http://www.w3.org/2000/svg"
     width="1.49333in" height="0.213333in"
     viewBox="0 0 448 64">
  <path id="Sélection"
        fill="white" stroke="black" stroke-width="1"
        d="M 4.00,18.00
           C 4.64,11.20 9.06,4.95 16.09,3.15
             17.73,2.91 22.13,2.98 24.00,3.15
             27.71,3.05 41.42,4.42 38.83,10.84
             38.36,12.02 36.99,13.27 35.94,13.95
             31.18,17.07 28.88,13.52 25.00,12.70
             20.86,11.83 17.95,14.87 19.17,17.75
             21.33,22.83 35.59,26.86 39.86,30.11
             44.47,33.61 42.26,35.95 49.00,38.00
             49.00,38.00 49.00,31.00 49.00,31.00
             49.00,31.00 53.00,31.00 53.00,31.00
             53.00,25.72 54.20,18.34 51.00,14.00
             51.00,14.00 52.00,9.00 52.00,9.00
             48.63,7.60 49.12,6.44 49.00,3.00
             49.00,3.00 86.00,3.00 86.00,3.00
             86.00,3.00 88.00,12.00 88.00,12.00
             84.42,12.00 69.62,11.31 67.44,13.02
             65.49,14.55 66.56,17.91 66.93,20.00
             68.70,29.73 78.98,27.00 87.00,27.00
             87.00,27.00 87.00,29.00 87.00,29.00
             82.51,30.43 82.37,31.46 82.00,36.00
             82.00,36.00 60.00,37.00 60.00,37.00
             64.76,44.24 62.10,45.49 64.74,48.69
             67.71,52.29 81.23,51.00 86.00,51.00
             86.00,53.45 86.51,58.19 84.43,59.83
             82.62,61.25 78.26,61.00 76.00,61.00
             76.00,61.00 57.00,61.00 57.00,61.00
             55.12,60.97 52.10,61.04 50.57,59.83
             48.22,57.96 49.65,54.46 49.83,52.00
             50.04,49.13 48.73,41.96 48.00,39.00
             48.00,39.00 46.00,39.00 46.00,39.00
             46.00,39.00 43.00,56.00 43.00,56.00
             30.61,62.42 21.84,61.13 10.00,54.42
             5.84,52.07 4.41,52.51 2.00,48.00
             2.00,48.00 12.91,43.73 12.91,43.73
             16.08,43.75 17.70,47.24 21.01,48.81
             28.72,52.47 30.44,44.02 32.00,39.00
             26.03,36.26 16.68,33.51 12.11,29.48
             5.89,24.01 10.75,21.65 4.00,18.00 Z
           M 92.00,3.00
           C 92.00,3.00 119.00,3.00 119.00,3.00
             122.97,3.05 127.69,3.43 130.60,6.56
             130.60,6.56 135.00,19.00 135.00,19.00
             135.38,20.34 135.22,21.71 135.00,23.00
             133.79,26.52 131.18,28.53 131.19,30.82
             131.20,33.08 133.78,34.27 135.64,37.18
             137.54,40.17 138.39,45.21 140.00,49.00
             140.00,49.00 125.00,59.30 125.00,59.30
             125.00,59.30 112.00,60.00 112.00,60.00
             112.00,60.00 89.00,60.00 89.00,60.00
             89.00,60.00 91.93,50.99 91.93,50.99
             91.93,50.99 91.93,24.00 91.93,24.00
             91.93,24.00 90.51,13.00 90.51,13.00
             90.51,13.00 92.00,3.00 92.00,3.00 Z
           M 171.00,26.00
           C 171.00,26.00 179.36,11.00 179.36,11.00
             179.36,11.00 184.22,4.02 184.22,4.02
             184.22,4.02 200.77,3.00 200.77,3.00
             200.77,3.00 200.77,24.00 200.77,24.00
             200.11,28.71 201.72,30.32 197.00,32.00
             197.37,36.54 197.51,37.57 202.00,39.00
             202.00,39.00 201.00,45.00 201.00,45.00
             201.00,45.00 204.00,48.00 204.00,48.00
             204.00,48.00 200.00,48.00 200.00,48.00
             200.16,50.40 200.29,57.53 198.91,59.20
             196.44,62.75 188.95,60.36 186.00,59.20
             186.00,59.20 187.51,54.58 187.51,54.58
             188.15,46.71 177.87,48.00 173.00,48.00
             173.00,48.00 159.00,48.00 159.00,48.00
             158.02,38.80 159.70,37.63 166.72,32.52
             170.11,30.05 169.68,29.71 174.00,29.00
             174.00,29.00 171.00,26.00 171.00,26.00 Z
           M 232.00,3.76
           C 237.68,2.98 248.45,2.25 254.00,3.76
             254.00,3.76 262.00,6.54 262.00,6.54
             269.05,9.20 272.70,8.97 276.00,17.00
             273.41,18.67 269.23,21.68 266.00,21.07
             261.56,20.24 256.26,10.93 247.02,13.57
             238.86,15.90 241.02,27.43 232.00,29.00
             233.73,31.00 235.81,32.67 236.90,35.13
             238.46,38.65 239.28,44.81 242.26,46.96
             247.37,50.96 255.61,50.01 260.86,46.96
             263.81,45.06 264.03,42.41 266.30,41.81
             268.34,41.27 274.42,44.26 277.00,45.00
             268.58,58.46 254.14,64.12 239.00,58.76
             234.27,57.08 226.72,52.93 224.75,47.96
             224.30,46.18 224.59,44.79 224.75,43.00
             224.75,43.00 222.88,31.00 222.88,31.00
             222.88,31.00 225.84,15.00 225.84,15.00
             227.18,10.47 230.04,10.68 232.00,3.76 Z
           M 291.00,8.00
           C 299.07,4.06 313.31,0.67 322.00,3.89
             324.60,4.85 326.75,6.66 329.00,8.24
             331.33,9.87 333.35,10.97 335.21,13.21
             337.74,16.25 339.52,21.29 341.00,25.00
             341.00,25.00 338.00,27.00 338.00,27.00
             339.81,28.05 342.50,30.71 344.11,30.84
             348.05,31.14 348.87,26.97 348.98,24.00
             349.25,16.48 347.21,17.02 346.15,12.91
             346.15,12.91 346.15,3.00 346.15,3.00
             346.15,3.00 369.00,3.00 369.00,3.00
             379.78,3.13 383.52,6.94 391.00,13.95
             392.85,15.69 396.34,18.25 397.55,20.24
             398.67,22.08 399.41,25.79 400.00,28.00
             400.00,28.00 394.00,30.00 394.00,30.00
             394.58,31.88 395.45,34.04 395.57,36.00
             395.81,39.88 393.17,46.90 389.79,48.99
             388.09,50.05 384.08,50.62 382.00,51.00
             382.00,51.00 384.00,56.00 384.00,56.00
             367.97,62.89 362.89,61.00 346.00,61.00
             345.95,54.66 344.06,51.64 350.00,48.00
             346.94,45.74 346.64,45.78 346.00,42.00
             341.05,45.54 339.50,45.02 337.26,46.73
             334.13,49.11 333.30,53.55 325.00,57.51
             312.74,63.36 294.37,60.03 287.00,48.00
             289.09,42.36 286.68,41.53 286.00,35.00
             289.88,34.68 290.20,34.76 293.00,32.00
             289.86,31.99 285.97,32.29 283.43,30.11
             278.99,26.31 283.94,16.45 287.27,13.51
             288.76,12.19 290.23,11.73 292.00,11.00
             292.00,11.00 291.00,8.00 291.00,8.00 Z
           M 404.00,3.00
           C 404.00,3.00 440.00,3.00 440.00,3.00
             440.00,3.00 442.00,12.00 442.00,12.00
             442.00,12.00 419.00,13.00 419.00,13.00
             419.00,13.00 421.23,17.42 421.23,17.42
             422.34,20.27 421.79,23.42 423.74,25.40
             426.25,27.97 438.15,27.00 442.00,27.00
             442.00,27.00 442.00,29.00 442.00,29.00
             442.00,29.00 437.00,29.00 437.00,29.00
             437.00,29.00 437.00,36.00 437.00,36.00
             437.00,36.00 415.00,37.00 415.00,37.00
             416.16,40.10 417.59,46.79 419.43,48.69
             422.92,52.28 434.97,51.00 440.00,51.00
             440.00,53.45 440.48,58.33 438.40,59.98
             436.81,61.23 432.99,61.00 431.00,61.00
             431.00,61.00 412.00,61.00 412.00,61.00
             410.06,60.97 407.17,61.05 405.56,59.83
             403.98,58.63 403.52,55.83 403.00,54.00
             403.00,54.00 406.00,53.00 406.00,53.00
             402.88,44.94 403.63,39.23 404.00,31.00
             409.76,27.75 409.30,18.36 405.00,14.00
             405.00,14.00 404.00,3.00 404.00,3.00 Z
           M 124.00,16.00
           C 124.00,16.00 114.00,12.63 114.00,12.63
             111.99,12.08 109.12,11.88 107.04,12.05
             100.98,12.55 103.40,16.06 104.53,20.00
             104.94,21.40 105.20,23.51 106.02,24.69
             109.26,29.39 118.26,26.83 121.08,22.94
             122.76,20.63 123.35,18.71 124.00,16.00 Z
           M 382.10,31.00
           C 387.79,28.95 385.15,22.85 382.10,19.13
             379.03,15.13 367.27,10.79 362.23,12.29
             357.05,13.84 362.40,18.12 362.84,22.03
             363.38,26.90 360.82,28.20 357.00,30.00
             357.00,30.00 358.74,37.00 358.74,37.00
             358.74,37.00 359.44,45.00 359.44,45.00
             359.44,45.00 362.31,50.40 362.31,50.40
             362.31,50.40 378.00,49.00 378.00,49.00
             378.00,49.00 382.10,31.00 382.10,31.00 Z
           M 328.00,30.00
           C 327.24,22.83 323.14,16.11 316.00,13.70
             306.96,10.64 295.87,17.45 294.91,27.00
             294.64,28.58 294.87,30.41 294.91,32.00
             294.91,32.00 299.00,32.00 299.00,32.00
             299.00,32.00 303.00,48.00 303.00,48.00
             305.29,48.83 307.54,49.65 310.00,49.79
             313.29,49.97 324.16,47.43 326.68,45.35
             330.91,41.85 336.81,31.55 328.00,30.00 Z
           M 185.00,24.00
           C 185.00,24.00 182.00,24.00 182.00,24.00
             181.68,26.73 181.63,28.35 179.59,30.46
             177.93,32.16 174.83,33.09 174.74,35.91
             174.66,38.64 177.90,39.12 179.95,38.67
             183.75,37.83 188.69,30.20 191.00,27.00
             187.69,26.37 187.00,26.82 185.00,24.00 Z
           M 231.00,31.00
           C 231.00,31.00 230.00,31.00 230.00,31.00
             230.00,31.00 231.00,32.00 231.00,32.00
             231.00,32.00 231.00,31.00 231.00,31.00 Z
           M 132.00,38.00
           C 132.00,38.00 120.17,37.25 120.17,37.25
             120.17,37.25 113.96,36.05 113.96,36.05
             113.96,36.05 98.00,37.00 98.00,37.00
             100.17,40.24 101.28,39.87 105.00,40.00
             105.00,42.71 104.57,47.37 106.60,49.40
             109.07,51.87 121.93,51.86 123.94,48.57
             124.88,46.91 124.10,42.13 123.94,40.00
             123.94,40.00 132.00,38.00 132.00,38.00 Z
           M 82.00,52.00
           C 82.00,52.00 77.00,52.00 77.00,52.00
             77.00,52.00 81.00,56.00 81.00,56.00
             81.00,56.00 82.00,52.00 82.00,52.00 Z
           M 437.00,52.00
           C 437.00,52.00 432.00,52.00 432.00,52.00
             433.46,55.97 435.54,55.97 437.00,52.00 Z" />
</svg>
