<svg fill="none" height="180" viewBox="0 0 400 180" width="400" xmlns="http://www.w3.org/2000/svg" xmlns:xlink="http://www.w3.org/1999/xlink"><clipPath id="a"><path d="m10 43h380v94.7246h-380z"/></clipPath><g clip-path="url(#a)"><path d="m127.607 112.633v-69.2618l-16.492 3.828v69.7308z" fill="#002939"/><path d="m373.508 47.1992v36.0702c0 5.9214-1.357 10.5892-4.072 14.0093-2.714 3.4203-6.396 5.1243-11.045 5.1243-4.65 0-8.35-1.71-11.101-5.1243-2.75-3.4201-4.126-8.0879-4.126-14.0093v-40.1173l-16.492 4.0531v36.5997c0 10.644 2.976 18.8541 8.934 24.6351s13.546 8.672 22.785 8.672c9.232 0 16.809-2.872 22.73-8.617s8.879-13.9731 8.879-24.684v-40.6345z" fill="#002939"/><path d="m246.474 80.8899c-3.761-3.3472-9.044-5.8606-15.847-7.5403-6.804-1.6735-11.143-3.128-13.024-4.3574-1.88-1.2293-2.818-2.8846-2.818-4.972s.767-3.761 2.307-5.0268c1.54-1.2659 3.639-1.8988 6.305-1.8988 6.627 0 13.054 2.3552 19.279 7.0716l6.987-12.5853c-3.305-2.5742-7.102-4.6008-11.399-6.0736-4.789-1.6431-9.573-2.4586-14.356-2.4586-7.315 0-13.419 1.844-18.306 5.538-4.887 3.6941-7.333 8.94-7.333 15.7439 0 6.8038 1.929 11.7941 5.793 14.9709 3.865 3.1768 9.963 5.7632 18.306 7.7411 5.264 1.3023 8.782 2.5803 10.565 3.8462 1.777 1.2658 2.666 2.9759 2.666 5.1302 0 2.1544-.84 3.8645-2.514 5.13-1.673 1.266-3.986 1.899-6.925 1.899-6.549 0-13.675-3.3714-21.38-10.1084l-7.491 13.4864c8.556 7.175 18.074 10.771 28.56 10.771 7.863 0 14.204-2.002 19.024-6s7.23-9.214 7.23-15.6405c.006-6.4265-1.874-11.3195-5.629-14.6666z" fill="#002939"/><path d="m193.23 43.1643h-58.089v14.2772h20.82v59.5065l16.492-4.297v-55.2095h20.777z" fill="#002939"/><path d="m307.867 90.694v-16.462l-16.888 4.1931v12.2689h-11.149l24.866-47.4627-21.507 3.9679-23.856 45.3022v13.4006h31.646v11.168l16.888-4.145v-7.023h11.277v-15.208z" fill="#e85312"/><path d="m50.671 105.111 20.2412-31.0554v31.0554z" fill="#e85734"/><path d="m91.1595 74.0556-20.2473 31.0554v-31.0554z" fill="#e64715"/><path d="m50.671 43 20.2412 31.0556v-31.0556z" fill="#ea6536"/><path d="m91.1595 74.0556-20.2473-31.0556v31.0556z" fill="#ed7a32"/><path d="m50.4885 74.0981-20.2412 31.0559v-31.0559z" fill="#002939"/><path d="m10 105.154 20.2473-31.0559v31.0559z" fill="#003b50"/><path d="m50.4885 136.209-20.2412-31.055v31.055z" fill="#003d52"/><path d="m10 105.154 20.2473 31.055v-31.055z" fill="#004e6e"/><g fill="#e85312"><path d="m275.758 131.14c0 4.162-3.213 6.585-7.771 6.585-5.289 0-8.648-3.445-8.648-8.344s3.359-8.343 8.648-8.343c3.329 0 5.55 1.065 6.956 3.024l-2.69 1.321c-1.053-1.321-2.16-1.917-4.266-1.917-3.566 0-5.52 2.288-5.52 5.915s1.96 5.915 5.52 5.915c3.329 0 4.643-1.734 4.643-3.627v-.067h-3.329v-2.337h6.457z"/><path d="m303.741 126.125c0 2.587-1.723 4.181-4.498 4.741l4.181 6.609h-3.536l-4.059-6.402h-4.613v6.402h-3.006v-16.176h8.97c3.554-.006 6.561 1.497 6.561 4.826zm-3.098.067c0-1.686-1.4-2.611-3.475-2.611h-5.958v5.198h5.958c2.045.006 3.475-.828 3.475-2.587z"/><path d="m332.514 129.363c0 5.039-3.566 8.368-8.763 8.368-5.173 0-8.679-3.281-8.679-8.32s3.567-8.367 8.733-8.367c5.204-.006 8.709 3.28 8.709 8.319zm-3.128.042c0-3.675-2.398-5.964-5.666-5.964-3.243 0-5.52 2.24-5.52 5.916s2.368 5.964 5.636 5.964c3.244 0 5.55-2.24 5.55-5.916z"/><path d="m360.326 130.726c0 4.528-2.775 7.005-7.857 7.005-5.057 0-7.686-2.587-7.686-7.048v-9.384h3.067v9.311c0 3.049 1.607 4.692 4.674 4.692 3.213 0 4.735-1.57 4.735-4.527v-9.476h3.067z"/><path d="m388.716 126.356c0 3.329-2.806 5.088-6.78 5.088h-5.349v6.031h-3.006v-16.176h8.562c3.767-.006 6.573 1.704 6.573 5.057zm-3.128 0c0-1.777-1.375-2.775-3.506-2.775h-5.495v5.569h5.495c2.337 0 3.506-1.059 3.506-2.794z"/></g></g></svg>