<?xml version="1.0" encoding="UTF-8" standalone="no"?>
<!-- Created with Inkscape (http://www.inkscape.org/) -->

<svg
   xmlns:dc="http://purl.org/dc/elements/1.1/"
   xmlns:cc="http://creativecommons.org/ns#"
   xmlns:rdf="http://www.w3.org/1999/02/22-rdf-syntax-ns#"
   xmlns:svg="http://www.w3.org/2000/svg"
   xmlns="http://www.w3.org/2000/svg"
   xmlns:sodipodi="http://sodipodi.sourceforge.net/DTD/sodipodi-0.dtd"
   xmlns:inkscape="http://www.inkscape.org/namespaces/inkscape"
   width="342.15588"
   height="228.77173"
   viewBox="0 0 90.528747 60.529185"
   version="1.1"
   id="svg3481"
   inkscape:version="0.92.0 r15299"
   sodipodi:docname="tango.svg">
  <defs
     id="defs3475">
    <clipPath
       id="clipPath3499"
       clipPathUnits="userSpaceOnUse">
      <path
         inkscape:connector-curvature="0"
         id="path3497"
         d="M 0,170.079 H 255.117 V 0 H 0 Z" />
    </clipPath>
  </defs>
  <sodipodi:namedview
     id="base"
     pagecolor="#ffffff"
     bordercolor="#666666"
     borderopacity="1.0"
     inkscape:pageopacity="0.0"
     inkscape:pageshadow="2"
     inkscape:zoom="2.3503812"
     inkscape:cx="170.07793"
     inkscape:cy="113.38586"
     inkscape:document-units="mm"
     inkscape:current-layer="layer1"
     showgrid="false"
     fit-margin-top="0"
     fit-margin-left="0"
     fit-margin-right="0"
     fit-margin-bottom="0"
     units="px"
     inkscape:window-width="1280"
     inkscape:window-height="744"
     inkscape:window-x="-4"
     inkscape:window-y="-4"
     inkscape:window-maximized="1" />
  <metadata
     id="metadata3478">
    <rdf:RDF>
      <cc:Work
         rdf:about="">
        <dc:format>image/svg+xml</dc:format>
        <dc:type
           rdf:resource="http://purl.org/dc/dcmitype/StillImage" />
        <dc:title></dc:title>
      </cc:Work>
    </rdf:RDF>
  </metadata>
  <g
     inkscape:label="Layer 1"
     inkscape:groupmode="layer"
     id="layer1"
     transform="translate(86.220432,-118.30416)">
    <g
       transform="matrix(0.35277777,0,0,-0.35277777,-85.955881,178.56876)"
       inkscape:label="tango_RGB_LogoCorporate_RGB"
       id="g3491">
      <g
         id="g3493">
        <g
           clip-path="url(#clipPath3499)"
           id="g3495">
          <g
             transform="translate(255.1171,21.2598)"
             id="g3501">
            <path
               inkscape:connector-curvature="0"
               id="path3503"
               style="fill:#005da9;fill-opacity:1;fill-rule:nonzero;stroke:none"
               d="m 0,0 c 0,-11.693 -9.567,-21.26 -21.26,-21.26 h -212.597 c -11.693,0 -21.26,9.567 -21.26,21.26 v 127.559 c 0,11.693 9.567,21.26 21.26,21.26 H -21.26 c 11.693,0 21.26,-9.567 21.26,-21.26 z" />
          </g>
          <g
             transform="translate(68.8132,73.9627)"
             id="g3505">
            <path
               inkscape:connector-curvature="0"
               id="path3507"
               style="fill:#ffffff;fill-opacity:1;fill-rule:nonzero;stroke:none"
               d="M 0,0 C -6.703,0.016 -12.233,5.599 -12.235,12.622 -12.233,19.644 -6.703,25.225 0,25.239 6.701,25.225 12.226,19.644 12.233,12.622 12.226,5.599 6.701,0.016 0,0 M 17.637,12.641 C 17.612,22.536 9.791,30.64 0,30.648 -9.8,30.64 -17.627,22.524 -17.644,12.622 -17.627,2.717 -9.8,-5.392 0,-5.409 c 4.772,0.008 9.076,1.95 12.233,5.077 v -2.21 c 0,-1.487 1.211,-2.698 2.708,-2.698 1.486,0 2.703,1.211 2.703,2.698 v 15.164 z" />
          </g>
          <g
             transform="translate(47.3002,73.9604)"
             id="g3509">
            <path
               inkscape:connector-curvature="0"
               id="path3511"
               style="fill:#ffffff;fill-opacity:1;fill-rule:nonzero;stroke:none"
               d="m 0,0 -0.29,0.005 c -6.7,0.014 -12.23,5.596 -12.237,12.619 l 0.012,12.68 h 6.684 c 1.498,0 2.703,1.211 2.703,2.703 0,1.498 -1.205,2.703 -2.703,2.703 h -6.684 v 9.558 c 0,1.498 -1.204,2.708 -2.696,2.708 -1.501,0 -2.705,-1.21 -2.705,-2.708 V 30.71 h -5.42 c -1.493,0 -2.704,-1.205 -2.704,-2.703 0,-1.492 1.211,-2.703 2.704,-2.703 h 5.42 L -17.93,12.624 C -17.912,2.72 -10.09,-5.39 -0.29,-5.404 h 0.297 c 1.487,0 2.701,1.212 2.701,2.706 C 2.703,-1.207 1.492,0 0,0" />
          </g>
          <g
             transform="translate(128.5648,86.5991)"
             id="g3513">
            <path
               inkscape:connector-curvature="0"
               id="path3515"
               style="fill:#ffffff;fill-opacity:1;fill-rule:nonzero;stroke:none"
               d="M 0,0 C -0.012,6.802 -3.72,12.769 -9.216,15.834 L -9.563,16 c -0.391,0.209 -0.781,0.413 -1.193,0.591 l -0.507,0.188 c -0.368,0.147 -0.737,0.299 -1.115,0.42 -0.221,0.071 -0.448,0.117 -0.672,0.176 -0.337,0.1 -0.677,0.199 -1.021,0.274 -0.223,0.042 -0.458,0.068 -0.684,0.104 -0.938,0.159 -1.9,0.266 -2.886,0.266 -0.985,0 -1.945,-0.107 -2.883,-0.266 -0.231,-0.036 -0.459,-0.062 -0.684,-0.104 -0.348,-0.075 -0.688,-0.174 -1.023,-0.274 -0.225,-0.059 -0.456,-0.105 -0.671,-0.176 -0.444,-0.139 -0.867,-0.309 -1.295,-0.482 l -0.325,-0.126 c -0.43,-0.187 -0.838,-0.399 -1.245,-0.613 l -0.297,-0.144 C -31.564,12.769 -35.265,6.802 -35.282,0 v -0.009 -15.309 c 0,-1.489 1.213,-2.701 2.703,-2.701 1.494,0 2.703,1.212 2.703,2.701 v 1.87 -0.006 13.114 c 0,0 0.085,2.064 0.249,2.891 1.159,5.772 6.124,10.047 11.986,10.059 5.866,-0.012 10.83,-4.287 11.983,-10.059 0.166,-0.827 0.203,-2.96 0.192,-3.164 l 0.06,-12.826 v -1.867 c 0,-1.487 1.212,-2.703 2.705,-2.703 1.489,0 2.706,1.216 2.706,2.703 v 15.297 z" />
          </g>
          <g
             transform="translate(212.2629,69.4452)"
             id="g3517">
            <path
               inkscape:connector-curvature="0"
               id="path3519"
               style="fill:#bed600;fill-opacity:1;fill-rule:nonzero;stroke:none"
               d="m 0,0 c 1.459,2.372 2.433,4.176 2.926,5.403 1.521,3.753 2.28,9.789 2.28,11.618 0,1.824 -0.765,7.976 -2.298,11.674 C 2.382,29.926 1.419,31.755 0,34.183 l -0.062,0.058 c 0.226,0.49 0.72,0.835 1.297,0.835 0.584,0 0.982,-0.379 1.43,-0.809 l 0.08,-0.084 C 4.171,32.836 5.492,30.902 6.708,28.375 7.468,26.786 8.086,24.93 8.544,22.807 9.002,20.689 9.235,18.648 9.235,16.697 9.235,13.548 8.656,10.489 7.504,7.518 6.342,4.546 4.762,2.04 2.745,0 L 2.694,-0.072 C 2.245,-0.505 1.848,-0.881 1.266,-0.881 c -0.57,0 -1.068,0.339 -1.297,0.832 z" />
          </g>
          <g
             transform="translate(224.5052,69.4452)"
             id="g3521">
            <path
               inkscape:connector-curvature="0"
               id="path3523"
               style="fill:#bed600;fill-opacity:1;fill-rule:nonzero;stroke:none"
               d="m 0,0 c 1.458,2.372 2.433,4.176 2.926,5.403 1.521,3.753 2.283,9.765 2.283,11.618 0,1.85 -0.765,7.976 -2.304,11.674 -0.52,1.231 -1.489,3.06 -2.905,5.488 l -0.079,0.196 c 0.224,0.494 0.63,0.77 1.205,0.77 0.584,0 0.979,-0.375 1.43,-0.808 L 2.665,34.267 2.743,34.183 C 4.171,32.836 5.497,30.902 6.708,28.375 7.472,26.786 8.083,24.93 8.541,22.807 9.005,20.689 9.232,18.648 9.232,16.697 9.232,13.548 8.655,10.489 7.504,7.518 6.346,4.546 4.76,2.04 2.743,0 L 2.696,-0.067 C 2.24,-0.501 1.843,-0.879 1.266,-0.879 c -0.575,0 -1.022,0.266 -1.25,0.76 z" />
          </g>
          <g
             transform="translate(180.0854,86.5658)"
             id="g3525">
            <path
               inkscape:connector-curvature="0"
               id="path3527"
               style="fill:#bed600;fill-opacity:1;fill-rule:nonzero;stroke:none"
               d="M 0,0 C 0,-7.023 5.529,-12.605 12.233,-12.622 18.935,-12.605 24.465,-7.023 24.469,0 24.465,7.021 18.935,12.603 12.233,12.617 5.529,12.603 0,7.021 0,0 M -5.411,0 C -5.387,9.905 2.44,18.019 12.233,18.026 22.033,18.019 29.859,9.905 29.873,0 29.859,-9.905 22.033,-18.014 12.233,-18.028 2.44,-18.014 -5.387,-9.905 -5.411,0" />
          </g>
          <g
             transform="translate(151.6215,73.9842)"
             id="g3529">
            <path
               inkscape:connector-curvature="0"
               id="path3531"
               style="fill:#bed600;fill-opacity:1;fill-rule:nonzero;stroke:none"
               d="m 0,0 c -6.701,0.012 -12.235,5.596 -12.235,12.619 0,7.017 5.534,12.604 12.235,12.616 C 6.704,25.223 12.228,19.636 12.235,12.619 12.228,5.596 6.704,0.012 0,0 m 17.641,12.619 -0.004,0.051 v 0.363 l -0.023,0.119 C 17.321,22.812 9.619,30.633 0,30.645 -9.795,30.633 -17.622,22.52 -17.641,12.619 -17.622,2.715 -9.795,-5.399 0,-5.409 c 4.776,0.005 9.072,1.943 12.235,5.069 v -3.026 c -0.014,-6.636 -5.451,-12.061 -12.23,-12.061 -4.864,-0.005 -9.035,0.313 -11.017,4.32 -0.658,1.337 -2.28,1.891 -3.617,1.223 -1.337,-0.655 -1.891,-2.275 -1.223,-3.62 l -0.008,0.005 c 2.866,-5.819 8.898,-7.335 15.865,-7.335 9.717,0.019 17.629,7.791 17.632,17.468 v 15.934 z" />
          </g>
        </g>
      </g>
    </g>
  </g>
</svg>
